<svg width="600" height="600" viewBox="0 0 600 600" fill="none" xmlns="http://www.w3.org/2000/svg">
<path d="M536.889 189.35C542.582 164.02 526.663 138.872 501.333 133.179C476.003 127.486 450.855 143.405 445.162 168.735C439.469 194.065 455.388 219.213 480.718 224.906C506.048 230.599 531.196 214.68 536.889 189.35Z" fill="white"/>
<path d="M299.817 346.861C325.779 346.861 346.825 325.815 346.825 299.854C346.825 273.892 325.779 252.846 299.817 252.846C273.855 252.846 252.809 273.892 252.809 299.854C252.809 325.815 273.855 346.861 299.817 346.861Z" fill="#CDF13C"/>
<path d="M435.721 251.387C428.604 231.182 417.047 212.832 401.901 197.687C395.62 191.073 386.246 188.388 377.417 190.674C368.587 192.96 361.693 199.857 359.408 208.69C357.122 217.522 359.806 226.899 366.418 233.183C376.263 243.07 383.768 255.039 388.379 268.209C399.676 299.953 393.155 335.316 371.28 360.938C349.404 386.56 315.509 398.534 282.401 392.337C277.612 391.406 272.903 390.105 268.315 388.445C255.116 383.844 243.118 376.336 233.208 366.476C198.533 331.523 196.525 275.783 228.596 238.425L229.13 237.828C230.447 236.259 231.796 234.69 233.208 233.278C234.62 231.865 236.126 230.579 237.632 229.292L238.291 228.695C255.376 213.897 277.214 205.742 299.813 205.722C313.675 205.722 324.912 194.48 324.912 180.614C324.912 166.747 313.675 155.506 299.813 155.506C265.157 155.541 231.67 168.052 205.474 190.751L204.815 191.316C202.431 193.387 200.047 195.459 197.725 197.781C195.404 200.104 193.27 202.552 191.168 205L190.698 205.533C159.463 241.552 148.068 290.698 160.265 336.794C172.461 382.889 206.668 419.961 251.624 435.805C258.68 438.361 265.929 440.344 273.303 441.737C320.067 450.49 368.139 435.625 401.808 402C435.477 368.375 450.417 320.309 441.745 273.513C440.314 265.993 438.3 258.595 435.721 251.387Z" fill="#CDF13C"/>
<path d="M54.977 244.986C33.786 339.887 69.2977 438.49 146.13 498.084C222.962 557.679 327.297 567.547 413.94 523.414C500.584 479.281 553.954 389.084 550.932 291.893C550.496 278.028 538.902 267.141 525.037 267.578C511.171 268.015 500.285 279.609 500.722 293.475C503.54 384.014 445.297 465.196 358.629 491.531C271.961 517.865 178.403 482.81 130.378 406.007C82.3536 329.205 91.796 229.738 153.414 163.343C215.033 96.9474 313.517 80.121 393.681 122.292C401.644 126.788 411.421 126.599 419.203 121.799C426.986 116.999 431.544 108.347 431.101 99.2133C430.658 90.0799 425.285 81.9096 417.074 77.8853C347.921 41.4941 265.772 39.3529 194.816 72.0923C123.86 104.832 72.1767 168.724 54.9839 244.956L54.977 244.986Z" fill="#CDF13C"/>
</svg>
